ply
format ascii 1.0
comment Created in Blender version 4.3.1
element vertex 66
property float x
property float y
property float z
property float nx
property float ny
property float nz
property float s
property float t
element face 60
property list uchar uint vertex_indices
end_header
0 0.5 0.5 -1.5950963e-06 0.74621445 0.66570574 1 1
0.19134173 0.46193975 -0.5 0.28556538 0.68941164 -0.66570574 0.9375 0.5
0 0.5 -0.5 1.5977618e-06 0.74619526 -0.66572714 1 0.5
0.19134173 0.46193975 0.5 0.28555512 0.6893951 0.6657272 0.9375 1
0.35355338 0.35355338 -0.5 0.5276409 0.5276386 -0.6657272 0.875 0.5
0.35355338 0.35355338 0.5 0.5276462 0.52764845 0.66571516 0.875 1
0.46193975 0.19134173 -0.5 0.689415 0.2855633 -0.6657032 0.8125 0.5
0.46193975 0.19134173 0.5 0.6893939 0.28555807 0.6657272 0.8125 1
0.5 0 -0.5 0.74619526 -1.5977618e-06 -0.66572714 0.75 0.5
0.5 0 0.5 0.74621445 1.5950963e-06 0.66570574 0.75 1
0.46193975 -0.19134173 -0.5 0.68941146 -0.28556544 -0.6657058 0.6875 0.5
0.46193975 -0.19134173 0.5 0.6893951 -0.2855551 0.6657272 0.6875 1
0.35355338 -0.35355338 -0.5 0.52763855 -0.5276408 -0.66572726 0.625 0.5
0.35355338 -0.35355338 0.5 0.5276561 -0.52765375 0.6657032 0.625 1
0.19134173 -0.46193975 -0.5 0.2855592 -0.6894051 -0.6657151 0.5625 0.5
0.19134173 -0.46193975 0.5 0.28555807 -0.6893939 0.6657272 0.5625 1
0 -0.5 -0.5 -1.5977618e-06 -0.74619526 -0.66572714 0.5 0.5
0 -0.5 0.5 1.5950963e-06 -0.74621445 0.66570574 0.5 1
-0.19134173 -0.46193975 -0.5 -0.28556538 -0.68941164 -0.66570574 0.4375 0.5
-0.19134173 -0.46193975 0.5 -0.28555512 -0.6893951 0.6657272 0.4375 1
-0.35355338 -0.35355338 -0.5 -0.5276409 -0.5276386 -0.6657272 0.375 0.5
-0.35355338 -0.35355338 0.5 -0.5276462 -0.52764845 0.66571516 0.375 1
-0.46193975 -0.19134173 -0.5 -0.689415 -0.2855633 -0.6657032 0.3125 0.5
-0.46193975 -0.19134173 0.5 -0.6893939 -0.28555807 0.6657272 0.3125 1
-0.5 0 -0.5 -0.74619526 1.5977618e-06 -0.66572714 0.25 0.5
-0.5 0 0.5 -0.74621445 -1.5950963e-06 0.66570574 0.25 1
-0.46193975 0.19134173 -0.5 -0.68941146 0.28556544 -0.6657058 0.1875 0.5
-0.46193975 0.19134173 0.5 -0.6893951 0.2855551 0.6657272 0.1875 1
-0.35355338 0.35355338 -0.5 -0.52763855 0.5276408 -0.66572726 0.125 0.5
-0.35355338 -0.35355338 0.5 -0.5276462 -0.52764845 0.66571516 0.080294386 0.080294386
0.35355338 -0.35355338 0.5 0.5276561 -0.52765375 0.6657032 0.41970563 0.080294386
0.35355338 0.35355338 0.5 0.5276462 0.52764845 0.66571516 0.41970563 0.41970563
-0.35355338 0.35355338 0.5 -0.5276561 0.52765375 0.6657032 0.125 1
-0.19134173 0.46193975 -0.5 -0.2855592 0.6894051 -0.6657151 0.0625 0.5
-0.19134173 0.46193975 0.5 -0.28555807 0.6893939 0.6657272 0.0625 1
0 0.5 -0.5 1.5977618e-06 0.74619526 -0.66572714 0 0.5
0.19134173 -0.46193975 -0.5 0.2855592 -0.6894051 -0.6657151 0.841844 0.028268918
-0.46193975 -0.19134173 -0.5 -0.689415 -0.2855633 -0.6657032 0.52826893 0.15815598
-0.19134173 0.46193975 -0.5 -0.2855592 0.6894051 -0.6657151 0.658156 0.47173107
0.19134173 0.46193975 0.5 0.28555512 0.6893951 0.6657272 0.34184402 0.47173107
0 0.5 0.5 -1.5950963e-06 0.74621445 0.66570574 0.25 0.49
-0.19134173 0.46193975 0.5 -0.28555807 0.6893939 0.6657272 0.15815598 0.47173107
-0.35355338 0.35355338 0.5 -0.5276561 0.52765375 0.6657032 0.080294386 0.41970563
-0.46193975 0.19134173 0.5 -0.6893951 0.2855551 0.6657272 0.028268918 0.34184402
-0.5 0 0.5 -0.74621445 -1.5950963e-06 0.66570574 0.010000005 0.25
-0.46193975 -0.19134173 0.5 -0.6893939 -0.28555807 0.6657272 0.028268918 0.15815598
-0.19134173 -0.46193975 0.5 -0.28555512 -0.6893951 0.6657272 0.15815598 0.028268918
0 -0.5 0.5 1.5950963e-06 -0.74621445 0.66570574 0.25 0.010000005
0.19134173 -0.46193975 0.5 0.28555807 -0.6893939 0.6657272 0.34184402 0.028268918
0.46193975 -0.19134173 0.5 0.6893951 -0.2855551 0.6657272 0.47173107 0.15815598
0.5 0 0.5 0.74621445 1.5950963e-06 0.66570574 0.49 0.25
0.46193975 0.19134173 0.5 0.6893939 0.28555807 0.6657272 0.47173107 0.34184402
0 0.5 0.5 -1.5950963e-06 0.74621445 0.66570574 0 1
0 0.5 -0.5 1.5977618e-06 0.74619526 -0.66572714 0.75 0.49
0.19134173 0.46193975 -0.5 0.28556538 0.68941164 -0.66570574 0.841844 0.47173107
0.35355338 0.35355338 -0.5 0.5276409 0.5276386 -0.6657272 0.9197056 0.41970563
0.46193975 0.19134173 -0.5 0.689415 0.2855633 -0.6657032 0.97173107 0.34184402
0.5 0 -0.5 0.74619526 -1.5977618e-06 -0.66572714 0.99 0.25
0.46193975 -0.19134173 -0.5 0.68941146 -0.28556544 -0.6657058 0.97173107 0.15815598
0.35355338 -0.35355338 -0.5 0.52763855 -0.5276408 -0.66572726 0.9197056 0.080294386
0 -0.5 -0.5 -1.5977618e-06 -0.74619526 -0.66572714 0.75 0.010000005
-0.19134173 -0.46193975 -0.5 -0.28556538 -0.68941164 -0.66570574 0.658156 0.028268918
-0.35355338 -0.35355338 -0.5 -0.5276409 -0.5276386 -0.6657272 0.5802944 0.080294386
-0.5 0 -0.5 -0.74619526 1.5977618e-06 -0.66572714 0.51 0.25
-0.46193975 0.19134173 -0.5 -0.68941146 0.28556544 -0.6657058 0.52826893 0.34184402
-0.35355338 0.35355338 -0.5 -0.52763855 0.5276408 -0.66572726 0.5802944 0.41970563
3 0 1 2
3 3 4 1
3 5 6 4
3 7 8 6
3 9 10 8
3 11 12 10
3 13 14 12
3 15 16 14
3 17 18 16
3 19 20 18
3 21 22 20
3 23 24 22
3 25 26 24
3 27 28 26
3 29 30 31
3 32 33 28
3 34 35 33
3 36 37 38
3 0 3 1
3 3 5 4
3 5 7 6
3 7 9 8
3 9 11 10
3 11 13 12
3 13 15 14
3 15 17 16
3 17 19 18
3 19 21 20
3 21 23 22
3 23 25 24
3 25 27 26
3 27 32 28
3 31 39 40
3 40 41 42
3 42 43 44
3 44 45 29
3 29 46 47
3 47 48 30
3 30 49 50
3 50 51 31
3 31 40 42
3 42 44 29
3 29 47 30
3 30 50 31
3 31 42 29
3 32 34 33
3 34 52 35
3 38 53 54
3 54 55 56
3 56 57 58
3 58 59 36
3 36 60 61
3 61 62 37
3 37 63 64
3 64 65 38
3 38 54 56
3 56 58 36
3 36 61 37
3 37 64 38
3 38 56 36
