ply
format ascii 1.0
comment Created in Blender version 4.3.1
element vertex 205
property float x
property float y
property float z
property float nx
property float ny
property float nz
property float s
property float t
element face 320
property list uchar uint vertex_indices
end_header
0 0 -0.5 -5.6952115e-07 0 -1 0.181819 0
0.101590455 -0.07380892 -0.48397478 0.21095031 -0.15326287 -0.9654069 0.20454624 0.03936525
-0.03880332 -0.119426355 -0.48397484 -0.0805748 -0.24798615 -0.965407 0.15909176 0.03936525
0.36180365 -0.26286265 -0.22360976 0.72360754 -0.5257258 -0.4472187 0.272728 0.157461
0.30477333 -0.2214282 -0.32875943 0.6042323 -0.43899587 -0.6649707 0.29545522 0.118095756
0.40636462 -0.14761886 -0.2511503 0.8151844 -0.2857323 -0.5038169 0.31818247 0.15746099
0 0 -0.5 -5.6952115e-07 0 -1 0.909091 0
-0.03880332 -0.119426355 -0.48397484 -0.0805748 -0.24798615 -0.965407 0.93181825 0.03936525
-0.12557349 0 -0.48397443 -0.2607502 -2.3119095e-07 -0.96540636 0.88636374 0.03936525
0 0 -0.5 -5.6952115e-07 0 -1 0.727273 0
-0.12557349 0 -0.48397443 -0.2607502 -2.3119095e-07 -0.96540636 0.75000024 0.03936525
-0.03880332 0.119426355 -0.48397484 -0.0805748 0.24798603 -0.9654071 0.70454574 0.03936525
0 0 -0.5 -5.6952115e-07 0 -1 0.545455 0
-0.03880332 0.119426355 -0.48397484 -0.0805748 0.24798603 -0.9654071 0.56818223 0.03936525
0.101590455 0.07380892 -0.48397478 0.21095045 0.15326305 -0.96540684 0.5227277 0.03936525
0.4303488 -0.22142877 -0.12557542 0.8649862 -0.43899736 -0.24306445 0.29545522 0.196826
-0.13819401 -0.42532462 -0.22360992 -0.27638865 -0.8506493 -0.44721937 0.09091 0.157461
-0.014819637 -0.4320921 -0.25115097 -0.019839942 -0.8635817 -0.50381845 0.13636449 0.15746099
-0.07760755 -0.47771102 -0.12557577 -0.15021753 -0.958308 -0.2430649 0.113637246 0.196826
-0.4472131 0 -0.22360781 -0.89442617 4.8469904e-09 -0.44721565 0.818182 0.157461
-0.41552532 -0.1194267 -0.25114933 -0.8274494 -0.24798721 -0.5038153 0.8636365 0.15746099
-0.47831288 -0.073809184 -0.12557472 -0.95782584 -0.1532645 -0.24306318 0.84090924 0.196826
-0.13819401 0.42532462 -0.22360992 -0.2763887 0.8506493 -0.4472194 0.636364 0.157461
-0.24198571 0.35828227 -0.25115085 -0.49154493 0.71031725 -0.5038184 0.6818185 0.15746099
-0.2180034 0.43209395 -0.12557602 -0.44174662 0.863585 -0.24306563 0.65909123 0.196826
0.36180365 0.26286265 -0.22360976 0.7236075 0.52572596 -0.44721872 0.454546 0.157461
0.26597044 0.34085622 -0.25115085 0.5236591 0.686985 -0.50381815 0.5000005 0.15746099
0.34357926 0.34085765 -0.12557594 0.68481225 0.68698734 -0.2430652 0.47727323 0.196826
0.3435793 -0.34085765 -0.12557596 0.6848119 -0.6869875 -0.24306549 0.25000075 0.19682601
-0.2180034 -0.43209395 -0.12557602 -0.4417466 -0.8635851 -0.24306566 0.0681825 0.19682601
-0.47831288 0.073809184 -0.12557472 -0.95782596 0.1532643 -0.24306309 0.79545474 0.19682601
-0.07760755 0.47771102 -0.12557577 -0.15021755 0.958308 -0.243065 0.61363673 0.19682601
0.4303488 0.22142877 -0.12557542 0.8649861 0.43899748 -0.24306427 0.43181875 0.19682601
0.13819401 -0.42532462 0.22360992 0.27638862 -0.85064924 0.44721958 0.181819 0.314921
0.24198571 -0.35828227 0.25115085 0.49154523 -0.7103173 0.50381804 0.2272735 0.314921
0.11641076 -0.35828155 0.3287596 0.2307922 -0.71031576 0.66497105 0.20454624 0.35428625
-0.36180365 -0.26286265 0.22360976 -0.7236075 -0.52572596 0.44721872 0 0.314921
-0.26597044 -0.34085622 0.25115085 -0.523659 -0.68698525 0.503818 0.045454748 0.314921
-0.30477333 -0.2214282 0.32875943 -0.6042324 -0.43899572 0.66497076 0.022727499 0.35428625
-0.36180365 0.26286265 0.22360976 -0.7236075 0.52572584 0.44721872 0.727273 0.314921
-0.40636462 0.14761886 0.2511503 -0.81518424 0.2857321 0.50381726 0.7727275 0.314921
-0.30477333 0.2214282 0.32875943 -0.60423243 0.4389957 0.6649707 0.75000024 0.35428625
0.13819401 0.42532462 0.22360992 0.27638862 0.85064924 0.44721943 0.545455 0.314921
0.014819637 0.4320921 0.25115097 0.01983986 0.86358166 0.5038185 0.5909095 0.314921
0.11641076 0.35828155 0.3287596 0.23079218 0.71031576 0.66497105 0.56818223 0.35428625
0.4472131 0 0.22360781 0.89442617 9.693981e-09 0.4472157 0.363637 0.314921
0.41552532 0.1194267 0.25114933 0.8274492 0.24798721 0.5038156 0.40909147 0.314921
0.37672085 0 0.32875738 0.7468726 -2.798628e-08 0.66496724 0.38636425 0.35428625
0.12557349 0 0.48397443 0.2607499 9.734354e-09 0.96540636 0.43181872 0.43301675
0.03880332 0.11942636 0.48397484 0.08057488 0.24798587 0.965407 0.47727326 0.43301675
0 0 0.5 5.598272e-07 -3.6352414e-09 1 0.454546 0.472382
0.2628649 0 0.42532584 0.5257297 1.2210151e-09 0.8506517 0.40909147 0.3936515
0.18090016 0.13143148 0.4472146 0.36820653 0.26751748 0.890426 0.45454597 0.3936515
0.31909677 0.13143206 0.36180502 0.63174826 0.26751855 0.7275493 0.43181872 0.35428625
0.08122778 0.24999763 0.4253272 0.16245624 0.4999955 0.8506542 0.5000005 0.3936515
0.22360457 0.26286408 0.3618058 0.44964424 0.51816016 0.7275508 0.47727323 0.35428625
0.11641076 0.35828155 0.3287596 0.23079218 0.71031576 0.66497105 0.5227277 0.35428625
0.3440947 0.24999845 0.2628681 0.6881893 0.49999753 0.52573574 0.45454597 0.314921
0.24198571 0.35828227 0.25115085 0.491545 0.71031743 0.50381815 0.5000005 0.314921
0.03880332 0.11942636 0.48397484 0.08057488 0.24798587 0.965407 0.61363673 0.43301675
-0.101590455 0.07380892 0.48397478 -0.21095012 0.15326282 0.965407 0.65909123 0.43301675
0 0 0.5 5.598272e-07 -3.6352414e-09 1 0.636364 0.472382
0.08122778 0.24999763 0.4253272 0.16245624 0.4999955 0.8506542 0.5909095 0.3936515
-0.06909863 0.21265975 0.44721496 -0.14064434 0.4328505 0.89042664 0.636364 0.3936515
-0.026394786 0.34409246 0.36180618 -0.059207916 0.6834936 0.72755134 0.61363673 0.35428625
-0.21266134 0.15450568 0.4253271 -0.42532286 0.3090119 0.85065395 0.6818185 0.3936515
-0.18090184 0.29388922 0.36180612 -0.35385394 0.5877557 0.7275512 0.65909123 0.35428625
-0.30477333 0.2214282 0.32875943 -0.60423243 0.4389957 0.6649707 0.70454574 0.35428625
-0.13143441 0.40450582 0.26286882 -0.26286897 0.80901223 0.5257369 0.636364 0.314921
-0.26597044 0.3408562 0.25115085 -0.52365893 0.6869852 0.5038182 0.6818185 0.314921
-0.101590455 0.07380892 0.48397478 -0.21095012 0.15326282 0.965407 0.79545474 0.43301675
-0.101590455 -0.07380892 0.48397478 -0.21095009 -0.1532628 0.965407 0.84090924 0.43301675
0 0 0.5 5.598272e-07 -3.6352414e-09 1 0.818182 0.472382
-0.21266134 0.15450568 0.4253271 -0.42532286 0.3090119 0.85065395 0.7727275 0.3936515
-0.22360495 0 0.44721454 -0.45512825 0 0.89042586 0.818182 0.3936515
-0.3354083 0.08122852 0.36180544 -0.6683382 0.15490344 0.72755 0.79545474 0.35428625
-0.21266134 -0.15450568 0.4253271 -0.4253229 -0.30901188 0.850654 0.8636365 0.3936515
-0.3354083 -0.08122852 0.36180544 -0.6683382 -0.15490346 0.72755 0.84090924 0.35428625
-0.30477333 -0.2214282 0.32875943 -0.6042324 -0.43899572 0.66497076 0.88636374 0.35428625
-0.42532393 0 0.26286796 -0.85064816 3.4188417e-08 0.5257354 0.818182 0.314921
-0.40636462 -0.14761886 0.2511503 -0.8151842 -0.28573218 0.50381726 0.8636365 0.314921
-0.36180365 -0.26286265 0.22360976 -0.7236075 -0.52572596 0.44721872 0.909091 0.314921
-0.101590455 -0.07380892 0.48397478 -0.21095009 -0.1532628 0.965407 0.0681825 0.43301675
0.03880332 -0.11942636 0.48397484 0.08057486 -0.24798584 0.9654071 0.11363725 0.43301675
0 0 0.5 5.598272e-07 -3.6352414e-09 1 0.09091 0.472382
-0.21266134 -0.15450568 0.4253271 -0.4253229 -0.30901188 0.850654 0.045454998 0.3936515
-0.069098644 -0.21265975 0.44721496 -0.14064434 -0.4328505 0.89042664 0.09090975 0.3936515
-0.18090184 -0.29388922 0.36180612 -0.35385382 -0.5877556 0.7275512 0.06818225 0.35428625
0.08122778 -0.24999763 0.4253272 0.1624562 -0.49999547 0.8506542 0.1363645 0.3936515
-0.026394786 -0.34409246 0.36180618 -0.05920777 -0.6834936 0.72755134 0.113637 0.35428625
0.11641076 -0.35828155 0.3287596 0.2307922 -0.71031576 0.66497105 0.15909176 0.35428625
-0.13143441 -0.40450585 0.26286882 -0.26286894 -0.80901223 0.52573675 0.090909496 0.314921
0.014819637 -0.4320921 0.25115097 0.019839885 -0.8635818 0.5038185 0.13636425 0.314921
0.03880332 -0.11942636 0.48397484 0.08057486 -0.24798584 0.9654071 0.25000075 0.43301675
0.12557349 0 0.48397443 0.2607499 9.734354e-09 0.96540636 0.29545522 0.43301675
0 0 0.5 5.598272e-07 -3.6352414e-09 1 0.272728 0.472382
0.08122778 -0.24999763 0.4253272 0.1624562 -0.49999547 0.8506542 0.2272735 0.3936515
0.18090016 -0.13143148 0.4472146 0.3682065 -0.26751742 0.890426 0.27272797 0.3936515
0.2236046 -0.26286408 0.36180583 0.44964424 -0.51816016 0.72755075 0.25000072 0.35428625
0.2628649 0 0.42532584 0.5257297 1.2210151e-09 0.8506517 0.31818247 0.3936515
0.31909677 -0.13143204 0.36180502 0.63174826 -0.26751846 0.7275493 0.29545522 0.35428625
0.37672085 0 0.32875738 0.7468726 -2.798628e-08 0.66496724 0.34090975 0.35428625
0.3440947 -0.24999847 0.2628681 0.6881895 -0.49999765 0.5257354 0.272728 0.314921
0.41552532 -0.119426705 0.25114933 0.8274493 -0.24798746 0.5038153 0.3181825 0.314921
0.47831288 0.073809184 0.12557472 0.95782596 0.15326397 0.24306323 0.38636422 0.275556
0.47552893 0.15450631 8.758744e-09 0.95105755 0.30901372 1.4652184e-08 0.40909147 0.236191
0.4309021 0.21266098 0.13819811 0.8593178 0.43285346 0.27241677 0.43181872 0.275556
0.40450963 0.29389104 0 0.8089871 0.58775955 0.008872481 0.45454597 0.236191
0.33541027 0.34409457 0.1381987 0.6772143 0.68349785 0.2724179 0.47727323 0.275556
0.2938928 0.40450838 -8.7588194e-09 0.5877861 0.8090165 2.8083375e-07 0.5000005 0.23619099
0.2180034 0.43209395 0.12557602 0.44174683 0.8635849 0.2430657 0.5227277 0.275556
0.07760755 0.47771102 0.12557577 0.15021768 0.958308 0.2430649 0.56818223 0.275556
0 0.49999997 8.758794e-09 1.4325947e-07 1 -1.2210157e-07 0.5909095 0.236191
-0.06909926 0.47552755 0.13819854 -0.14612933 0.9510178 0.27241787 0.61363673 0.275556
-0.15450823 0.47552833 -2.4598623e-07 -0.30900466 0.9510192 0.008872092 0.636364 0.236191
-0.22360753 0.42532438 0.13819863 -0.44077724 0.85528 0.27241805 0.65909123 0.275556
-0.2938928 0.40450835 -8.7588194e-09 -0.58778584 0.8090167 -1.3309077e-07 0.6818185 0.23619099
-0.3435793 0.34085765 0.12557596 -0.68481195 0.6869876 0.24306525 0.70454574 0.275556
-0.4303488 0.22142877 0.12557542 -0.8649863 0.43899742 0.24306414 0.75000024 0.275556
-0.47552893 0.15450631 8.758744e-09 -0.95105755 0.3090138 -2.3443496e-07 0.7727275 0.236191
-0.47360662 0.081228815 0.13819794 -0.94962823 0.15490404 0.27241698 0.79545474 0.275556
-0.49999997 -1.803895e-07 3.1158186e-07 -0.99996066 -1.856743e-07 0.0088734515 0.818182 0.236191
-0.47360647 -0.08122894 0.13819829 -0.94962806 -0.15490407 0.2724175 0.84090924 0.275556
-0.47552893 -0.15450631 -8.758744e-09 -0.95105755 -0.3090139 -8.180804e-08 0.8636365 0.23619099
-0.4303488 -0.22142877 0.12557542 -0.8649861 -0.43899748 0.2430641 0.88636374 0.275556
-0.34357926 -0.34085765 0.12557594 -0.684812 -0.6869875 0.24306534 0.022727499 0.275556
-0.2938928 -0.40450838 8.7588194e-09 -0.5877859 -0.8090165 -1.7094225e-08 0.045454998 0.236191
-0.22360788 -0.4253242 0.13819842 -0.4407779 -0.8552797 0.27241787 0.068182245 0.275556
-0.15450859 -0.4755282 -3.9357735e-07 -0.30900517 -0.95101905 0.008872 0.09090975 0.236191
-0.06909963 -0.47552755 0.13819839 -0.14613001 -0.95101774 0.27241775 0.113637 0.275556
0 -0.49999997 -8.758794e-09 5.128266e-08 -1 -1.9292048e-07 0.13636449 0.23619099
0.07760755 -0.47771102 0.12557577 0.1502176 -0.958308 0.24306503 0.15909176 0.275556
0.2180034 -0.43209395 0.12557602 0.4417468 -0.8635848 0.24306585 0.20454624 0.275556
0.2938928 -0.40450835 8.7588194e-09 0.58778584 -0.80901664 1.3186974e-07 0.2272735 0.236191
0.33541018 -0.34409487 0.13819808 0.67721415 -0.68349826 0.27241716 0.25000075 0.275556
0.40450934 -0.2938915 -9.5114524e-07 0.8089868 -0.5877601 0.008870955 0.27272797 0.236191
0.43090206 -0.2126616 0.13819721 0.85931766 -0.43285444 0.27241552 0.29545522 0.275556
0.47552893 -0.15450631 -8.758744e-09 0.95105773 -0.3090136 -9.7681244e-08 0.31818247 0.23619099
0.47831288 -0.073809184 0.12557472 0.9578259 -0.15326416 0.24306329 0.34090975 0.275556
0.1545086 0.4755282 -1.3074406e-14 0.30900505 0.951019 -0.008872542 0.545455 0.236191
0.2236078 0.4253242 -0.13819885 0.4407778 0.8552797 -0.2724184 0.5227277 0.19682598
0.06909954 0.47552747 -0.13819876 0.14612964 0.95101774 -0.27241805 0.56818223 0.196826
0.13143441 0.40450585 -0.26286882 0.26286882 0.80901223 -0.5257369 0.545455 0.15746099
-0.014819637 0.4320921 -0.25115097 -0.019840067 0.86358184 -0.5038182 0.5909095 0.157461
-0.40450922 0.29389164 -3.9223243e-14 -0.80898654 0.5877602 -0.0088725425 0.727273 0.236191
-0.3354095 0.34409535 -0.13819864 -0.6772131 0.6834991 -0.27241793 0.70454574 0.19682598
-0.43090156 0.21266197 -0.13819817 -0.859317 0.43285513 -0.27241677 0.75000024 0.196826
-0.3440947 0.24999847 -0.2628681 -0.6881894 0.4999976 -0.52573556 0.727273 0.15746099
-0.41552532 0.119426705 -0.25114933 -0.8274495 0.2479873 -0.5038153 0.7727275 0.157461
-0.34357926 -0.34085765 0.12557594 -0.684812 -0.6869875 0.24306534 0.93181825 0.275556
-0.40450922 -0.29389164 4.015713e-14 -0.80898654 -0.58776027 -0.008872389 0.909091 0.236191
-0.4309016 -0.21266198 -0.13819817 -0.859317 -0.43285513 -0.2724168 0.88636374 0.19682598
-0.2938928 -0.40450838 8.7588194e-09 -0.5877859 -0.8090165 -1.7094225e-08 0.9545455 0.236191
-0.33540952 -0.34409535 -0.13819864 -0.6772131 -0.6834991 -0.27241793 0.93181825 0.196826
-0.2180034 -0.43209395 -0.12557602 -0.4417466 -0.8635851 -0.24306566 0.97727275 0.19682601
-0.3440947 -0.24999845 -0.2628681 -0.6881894 -0.49999747 -0.5257356 0.909091 0.15746099
-0.24198571 -0.35828227 -0.25115085 -0.49154484 -0.7103175 -0.50381815 0.9545455 0.157461
-0.13819401 -0.42532462 -0.22360992 -0.27638865 -0.8506493 -0.44721937 1 0.157461
0.1545086 -0.4755282 1.4008292e-14 0.30900517 -0.95101905 -0.008872649 0.18181899 0.236191
0.069099545 -0.47552747 -0.13819876 0.14612977 -0.9510176 -0.27241808 0.15909174 0.19682598
0.22360781 -0.42532414 -0.13819885 0.44077775 -0.85527956 -0.27241844 0.20454624 0.196826
0.13143441 -0.40450582 -0.26286882 0.2628689 -0.8090122 -0.52573687 0.18181899 0.15746099
0.26597044 -0.3408562 -0.25115085 0.5236591 -0.68698514 -0.503818 0.22727351 0.157461
0.5 0 0 0.99996066 5.6190906e-08 -0.008872879 0.36363697 0.236191
0.47360662 -0.08122877 -0.13819802 0.9496283 -0.15490396 -0.2724171 0.34090972 0.19682598
0.47360662 0.081228785 -0.13819802 0.9496283 0.1549039 -0.2724171 0.38636422 0.196826
0.42532393 0 -0.26286796 0.8506483 1.692743e-08 -0.52573526 0.36363697 0.15746099
0.40636462 0.14761886 -0.2511503 0.81518435 0.2857322 -0.5038172 0.4090915 0.157461
0.30477333 0.2214282 -0.32875943 0.6042322 0.43899587 -0.6649709 0.47727323 0.118095756
0.21266134 0.15450568 -0.4253271 0.42532265 0.309012 -0.8506541 0.5000005 0.0787305
0.18090174 0.2938896 -0.3618058 0.35385364 0.5877563 -0.7275508 0.5227277 0.11809574
0.0690984 0.21266066 -0.44721454 0.14064421 0.43285215 -0.89042586 0.545455 0.0787305
0.026394548 0.34409314 -0.36180547 0.059207484 0.6834946 -0.7275504 0.56818223 0.118095756
-0.08122778 0.24999762 -0.4253272 -0.16245654 0.49999547 -0.85065407 0.5909095 0.0787305
-0.11641076 0.35828155 -0.3287596 -0.23079239 0.71031547 -0.66497135 0.61363673 0.118095756
-0.11641076 0.35828155 -0.3287596 -0.23079239 0.71031547 -0.66497135 0.65909123 0.118095756
-0.08122778 0.24999762 -0.4253272 -0.16245654 0.49999547 -0.85065407 0.6818185 0.0787305
-0.22360529 0.26286355 -0.36180577 -0.4496453 0.5181593 -0.72755075 0.70454574 0.11809574
-0.1809006 0.13143127 -0.44721445 -0.3682072 0.26751724 -0.89042574 0.727273 0.0787305
-0.31909737 0.13143142 -0.36180472 -0.63174915 0.26751754 -0.7275489 0.75000024 0.118095756
-0.2628649 0 -0.42532584 -0.5257295 -2.7350734e-07 -0.8506518 0.7727275 0.0787305
-0.37672085 0 -0.32875738 -0.74687266 -1.9712073e-07 -0.6649671 0.79545474 0.118095756
-0.37672085 0 -0.32875738 -0.74687266 -1.9712073e-07 -0.6649671 0.84090924 0.118095756
-0.2628649 0 -0.42532584 -0.5257295 -2.7350734e-07 -0.8506518 0.8636365 0.0787305
-0.31909728 -0.13143185 -0.36180463 -0.631749 -0.2675182 -0.7275488 0.88636374 0.11809574
-0.18090066 -0.13143218 -0.4472142 -0.36820734 -0.26751852 -0.89042526 0.909091 0.0787305
-0.22360526 -0.26286432 -0.36180523 -0.44964513 -0.5181605 -0.72754997 0.93181825 0.118095756
-0.08122778 -0.24999762 -0.4253272 -0.16245589 -0.49999562 -0.8506541 0.9545455 0.0787305
-0.11641076 -0.35828155 -0.3287596 -0.23079203 -0.7103156 -0.6649713 0.97727275 0.118095756
0.30477333 0.2214282 -0.32875943 0.6042322 0.43899587 -0.6649709 0.43181872 0.118095756
0.3354085 0.0812284 -0.36180532 0.66833836 0.15490343 -0.7275499 0.38636422 0.11809574
0.33540878 -0.081228875 -0.36180502 0.6683388 -0.15490405 -0.7275494 0.34090972 0.11809574
0.21266134 0.15450568 -0.4253271 0.42532265 0.309012 -0.8506541 0.40909147 0.0787305
0.22360548 -3.6897777e-07 -0.44721425 0.45512903 -4.983886e-07 -0.8904255 0.36363697 0.078730494
0.101590455 0.07380892 -0.48397478 0.21095045 0.15326305 -0.96540684 0.38636425 0.03936525
0.21266134 -0.15450568 -0.4253271 0.42532283 -0.30901203 -0.85065395 0.31818247 0.0787305
0.101590455 -0.07380892 -0.48397478 0.21095031 -0.15326287 -0.9654069 0.34090975 0.03936525
0 0 -0.5 -5.6952115e-07 0 -1 0.363637 0
-0.11641076 -0.35828155 -0.3287596 -0.23079203 -0.7103156 -0.6649713 0.11363725 0.118095756
-0.08122778 -0.24999762 -0.4253272 -0.16245589 -0.49999562 -0.8506541 0.1363645 0.0787305
0.026395176 -0.34409267 -0.3618059 0.05920845 -0.6834939 -0.72755104 0.15909174 0.11809574
0.069099344 -0.21266031 -0.44721457 0.1406454 -0.43285158 -0.89042604 0.18181899 0.0787305
0.18090248 -0.29388958 -0.36180547 0.35385484 -0.5877563 -0.72755027 0.20454624 0.118095756
0.21266134 -0.15450568 -0.4253271 0.42532283 -0.30901203 -0.85065395 0.22727348 0.0787305
0.30477333 -0.2214282 -0.32875943 0.6042323 -0.43899587 -0.6649707 0.25000075 0.118095756
3 0 1 2
3 3 4 5
3 6 7 8
3 9 10 11
3 12 13 14
3 3 5 15
3 16 17 18
3 19 20 21
3 22 23 24
3 25 26 27
3 3 15 28
3 16 18 29
3 19 21 30
3 22 24 31
3 25 27 32
3 33 34 35
3 36 37 38
3 39 40 41
3 42 43 44
3 45 46 47
3 48 49 50
3 51 52 48
3 47 53 51
3 48 52 49
3 52 54 49
3 51 53 52
3 53 55 52
3 52 55 54
3 55 56 54
3 47 46 53
3 46 57 53
3 53 57 55
3 57 58 55
3 55 58 56
3 58 42 56
3 59 60 61
3 62 63 59
3 44 64 62
3 59 63 60
3 63 65 60
3 62 64 63
3 64 66 63
3 63 66 65
3 66 67 65
3 44 43 64
3 43 68 64
3 64 68 66
3 68 69 66
3 66 69 67
3 69 39 67
3 70 71 72
3 73 74 70
3 41 75 73
3 70 74 71
3 74 76 71
3 73 75 74
3 75 77 74
3 74 77 76
3 77 78 76
3 41 40 75
3 40 79 75
3 75 79 77
3 79 80 77
3 77 80 78
3 80 81 78
3 82 83 84
3 85 86 82
3 38 87 85
3 82 86 83
3 86 88 83
3 85 87 86
3 87 89 86
3 86 89 88
3 89 90 88
3 38 37 87
3 37 91 87
3 87 91 89
3 91 92 89
3 89 92 90
3 92 33 90
3 93 94 95
3 96 97 93
3 35 98 96
3 93 97 94
3 97 99 94
3 96 98 97
3 98 100 97
3 97 100 99
3 100 101 99
3 35 34 98
3 34 102 98
3 98 102 100
3 102 103 100
3 100 103 101
3 103 45 101
3 104 46 45
3 105 106 104
3 32 107 105
3 104 106 46
3 106 57 46
3 105 107 106
3 107 108 106
3 106 108 57
3 108 58 57
3 32 27 107
3 27 109 107
3 107 109 108
3 109 110 108
3 108 110 58
3 110 42 58
3 111 43 42
3 112 113 111
3 31 114 112
3 111 113 43
3 113 68 43
3 112 114 113
3 114 115 113
3 113 115 68
3 115 69 68
3 31 24 114
3 24 116 114
3 114 116 115
3 116 117 115
3 115 117 69
3 117 39 69
3 118 40 39
3 119 120 118
3 30 121 119
3 118 120 40
3 120 79 40
3 119 121 120
3 121 122 120
3 120 122 79
3 122 80 79
3 30 21 121
3 21 123 121
3 121 123 122
3 123 124 122
3 122 124 80
3 124 81 80
3 125 37 36
3 126 127 125
3 29 128 126
3 125 127 37
3 127 91 37
3 126 128 127
3 128 129 127
3 127 129 91
3 129 92 91
3 29 18 128
3 18 130 128
3 128 130 129
3 130 131 129
3 129 131 92
3 131 33 92
3 132 34 33
3 133 134 132
3 28 135 133
3 132 134 34
3 134 102 34
3 133 135 134
3 135 136 134
3 134 136 102
3 136 103 102
3 28 15 135
3 15 137 135
3 135 137 136
3 137 138 136
3 136 138 103
3 138 45 103
3 110 111 42
3 109 139 110
3 27 140 109
3 110 139 111
3 139 112 111
3 109 140 139
3 140 141 139
3 139 141 112
3 141 31 112
3 27 26 140
3 26 142 140
3 140 142 141
3 142 143 141
3 141 143 31
3 143 22 31
3 117 118 39
3 116 144 117
3 24 145 116
3 117 144 118
3 144 119 118
3 116 145 144
3 145 146 144
3 144 146 119
3 146 30 119
3 24 23 145
3 23 147 145
3 145 147 146
3 147 148 146
3 146 148 30
3 148 19 30
3 124 149 81
3 123 150 124
3 21 151 123
3 124 150 149
3 150 152 149
3 123 151 150
3 151 153 150
3 150 153 152
3 153 154 152
3 21 20 151
3 20 155 151
3 151 155 153
3 155 156 153
3 153 156 154
3 156 157 154
3 131 132 33
3 130 158 131
3 18 159 130
3 131 158 132
3 158 133 132
3 130 159 158
3 159 160 158
3 158 160 133
3 160 28 133
3 18 17 159
3 17 161 159
3 159 161 160
3 161 162 160
3 160 162 28
3 162 3 28
3 138 104 45
3 137 163 138
3 15 164 137
3 138 163 104
3 163 105 104
3 137 164 163
3 164 165 163
3 163 165 105
3 165 32 105
3 15 5 164
3 5 166 164
3 164 166 165
3 166 167 165
3 165 167 32
3 167 25 32
3 168 26 25
3 169 170 168
3 14 171 169
3 168 170 26
3 170 142 26
3 169 171 170
3 171 172 170
3 170 172 142
3 172 143 142
3 14 13 171
3 13 173 171
3 171 173 172
3 173 174 172
3 172 174 143
3 174 22 143
3 175 23 22
3 176 177 175
3 11 178 176
3 175 177 23
3 177 147 23
3 176 178 177
3 178 179 177
3 177 179 147
3 179 148 147
3 11 10 178
3 10 180 178
3 178 180 179
3 180 181 179
3 179 181 148
3 181 19 148
3 182 20 19
3 183 184 182
3 8 185 183
3 182 184 20
3 184 155 20
3 183 185 184
3 185 186 184
3 184 186 155
3 186 156 155
3 8 7 185
3 7 187 185
3 185 187 186
3 187 188 186
3 186 188 156
3 188 157 156
3 167 189 25
3 166 190 167
3 5 191 166
3 167 190 189
3 190 192 189
3 166 191 190
3 191 193 190
3 190 193 192
3 193 194 192
3 5 4 191
3 4 195 191
3 191 195 193
3 195 196 193
3 193 196 194
3 196 197 194
3 198 17 16
3 199 200 198
3 2 201 199
3 198 200 17
3 200 161 17
3 199 201 200
3 201 202 200
3 200 202 161
3 202 162 161
3 2 1 201
3 1 203 201
3 201 203 202
3 203 204 202
3 202 204 162
3 204 3 162
