ply
format ascii 1.0
comment Created in Blender version 4.3.1
element vertex 4
property float x
property float y
property float z
property float nx
property float ny
property float nz
property uchar red
property uchar green
property uchar blue
property uchar alpha
property float s
property float t
element face 2
property list uchar uint vertex_indices
end_header
4 -4 0 0 0 1 0 0 254 255 4.499999 -3.4999998
-4 4 0 0 0 1 254 0 0 255 -3.4999998 4.5
-4 -4 0 0 0 1 254 254 254 255 -3.5 -3.5000007
4 4 0 0 0 1 0 254 0 255 4.5000005 4.5000005
3 0 1 2
3 0 3 1
